<?xml version="1.0" encoding="utf-8"?>
<!-- Generator: Adobe Illustrator 27.3.1, SVG Export Plug-In . SVG Version: 6.00 Build 0)  -->
<svg version="1.1" id="a" xmlns="http://www.w3.org/2000/svg" xmlns:xlink="http://www.w3.org/1999/xlink" x="0px" y="0px"
	 viewBox="0 0 863.5 196.9" style="enable-background:new 0 0 863.5 196.9;" xml:space="preserve">
<style type="text/css">
	.st0{fill:#FFFFFF;}
</style>
<path class="st0" d="M118,11.4c34.2,1.3,61.6,15.1,79,45.3c22.8,39.5,10.3,88.8-28.2,113.3c-23.4,14.9-48.7,19.4-75.6,12.2
	c-20.8-5.5-38.2-16.6-50.4-34.7c-2.8-4.1-5.7-5.3-10.3-3.9c-4.1,1.2-8.2,2.2-12.4,2.3c-1,0-2,0.1-3-0.2c-1.5-0.4-2.3-1.4-2.5-3
	c-0.2-1.6,0.9-2.1,2-2.6c4.3-1.9,8.9-2.6,13.3-3.9c4.9-1.4,5-1.4,3-6c-4.9-11.4-6.9-23.4-6.3-35.7c0.6-12.8,3.4-25.1,9.8-36.2
	c14.1-24.6,35.2-39.8,63.2-45.2C105.6,12,111.7,11.4,118,11.4L118,11.4z M117.1,25.7c-9.6-0.1-18.6,1.9-27.5,5.1
	C50.9,45.1,30.2,89,48,127.5c1,2.1,1.8,2.8,4.2,1.9c7-2.6,13.5-6.3,20.3-9.3c2.1-0.9,2.5-2,2.1-4.1c-1.5-8.6-2.5-17.2-0.1-25.8
	c5.9-20.9,18.8-35.2,40.2-40.5c15.2-3.8,29,6.8,23.8,24.5c-3.1,10.7-9.4,19.3-17.5,26.7c-7.4,6.7-15.9,12.1-24.3,17.4
	c-2.5,1.6-2.2,2.9-0.5,4.7c2.9,2.9,6.4,4.9,10.4,6c11.3,2.9,22.2,1.4,32.8-3.1c4.1-1.7,8.1-3.5,12.3-5.1c3.2-1.2,6.6-0.1,8.4,2.5
	c1.8,2.5,1.6,5.1-0.6,8.1c-1.4,2-3.4,3.4-5.4,4.8c-6.5,4.4-13.6,7.5-21.3,8.9c-19.8,3.6-37.8,0.8-51.8-15.2
	c-1.1-1.3-2.2-1.6-3.7-0.9c-7,2.9-13.9,5.9-20.9,8.8c-1.5,0.6-1.8,1.4-0.6,2.6c0.5,0.5,0.8,1.1,1.3,1.7
	c26.2,32.2,72.7,38.1,106.3,13.6c31.4-22.9,39.2-66.3,17-97.6C165.1,36.5,143.3,26.6,117.1,25.7L117.1,25.7z M89.7,103
	c0,1.2,0.1,2.4,0,3.6c-0.2,2.5,1,2.6,2.6,1.3c2.9-2.2,5.7-4.4,8.5-6.8c8.9-7.5,17.4-15.3,22.6-26c0.9-1.9,1.8-3.8,2-6
	c0.4-4.1-1.8-6.4-5.8-6.1c-2.9,0.2-5.6,1-8,2.5C97.7,74.2,90.4,86.7,89.7,103L89.7,103z"/>
<g>
	<g>
		<path class="st0" d="M265.2,61.9h-19.1v12.6H268l-2.3,15.3h-39.6V20.1h39.9v15.4h-20v11h19.1V61.9L265.2,61.9z"/>
		<path class="st0" d="M273.4,89.8V20.1h21.7c5.6,26.5,7.4,35.1,8,37.7h0.6c-0.8-9.9-1.4-23.8-1.4-33.6v-4h18v69.7h-22.1
			c-6-31.3-6.9-37.3-7.4-39.7H290c0.6,8.1,1.4,26.4,1.4,35.8v3.9L273.4,89.8L273.4,89.8z"/>
		<path class="st0" d="M337,35.5h-11.9V20.1h44v15.4h-11.7v54.3H337V35.5L337,35.5z"/>
		<path class="st0" d="M394.5,62.5v27.3h-20.1V20.1h26.3c14.5,0,20.3,6.8,20.3,19.3c0,9-3.4,13.9-8.9,15.9c6,2.2,8.4,6.9,8.4,16.2
			v1.8c0,6.8,0.1,14.6,0.4,16.5h-20.1c-0.4-1.8-0.8-9.5-0.8-17.7v-2.1c0-6.5-0.7-7.6-4.2-7.6L394.5,62.5L394.5,62.5z M394.6,48.6h1
			c3.5,0,4.8-0.8,4.8-7.7c0-5.7-0.6-6.9-4.3-6.9h-1.4C394.6,34,394.6,48.6,394.6,48.6z"/>
		<path class="st0" d="M467,61.9h-19.1v12.6h21.9l-2.3,15.3h-39.6V20.1h39.9v15.4h-20v11H467V61.9L467,61.9z"/>
		<path class="st0" d="M475.2,20.1h25.1c12.9,0,21.3,6.3,21.3,21.3c0,16.1-7.3,22.6-21.6,22.6h-4.7v25.9h-20.2L475.2,20.1
			L475.2,20.1z M495.3,49.1h1.6c3.5,0,4.3-1.8,4.3-7.7s-1.4-7.2-4.6-7.2h-1.4L495.3,49.1L495.3,49.1z"/>
		<path class="st0" d="M547.1,62.5v27.3H527V20.1h26.3c14.5,0,20.3,6.8,20.3,19.3c0,9-3.4,13.9-8.9,15.9c6,2.2,8.4,6.9,8.4,16.2v1.8
			c0,6.8,0.1,14.6,0.4,16.5h-20.1c-0.4-1.8-0.8-9.5-0.8-17.7v-2.1c0-6.5-0.7-7.6-4.2-7.6L547.1,62.5L547.1,62.5z M547.2,48.6h1
			c3.5,0,4.8-0.8,4.8-7.7c0-5.7-0.6-6.9-4.3-6.9h-1.4V48.6z"/>
		<path class="st0" d="M619.6,61.9h-19.1v12.6h21.9l-2.3,15.3h-39.6V20.1h39.9v15.4h-20v11h19.1L619.6,61.9L619.6,61.9z"/>
		<path class="st0" d="M627.8,89.8V20.1h21.7c5.6,26.5,7.4,35.1,8,37.7h0.6c-0.8-9.9-1.4-23.8-1.4-33.6v-4h18v69.7h-22.1
			c-6-31.3-6.9-37.3-7.4-39.7h-0.7c0.6,8.1,1.4,26.4,1.4,35.8v3.9L627.8,89.8L627.8,89.8z"/>
		<path class="st0" d="M722,61.9h-19.1v12.6h21.9l-2.3,15.3h-39.6V20.1h39.9v15.4h-20v11H722V61.9L722,61.9z"/>
		<path class="st0" d="M749.8,20.1v50.8c0,3.2,0.4,5.6,3,5.6c2.6,0,2.8-2.3,2.8-5.6V20.1h20.7V69c0,17.4-10.7,22.2-24.1,22.2
			c-14.4,0-22.9-5.8-22.9-22.5V20.1L749.8,20.1L749.8,20.1z"/>
		<path class="st0" d="M804,62.5v27.3h-20.1V20.1h26.3c14.5,0,20.3,6.8,20.3,19.3c0,9-3.4,13.9-8.9,15.9c6,2.2,8.4,6.9,8.4,16.2v1.8
			c0,6.8,0.1,14.6,0.4,16.5h-20.1c-0.4-1.8-0.8-9.5-0.8-17.7v-2.1c0-6.5-0.7-7.6-4.2-7.6L804,62.5L804,62.5z M804.1,48.6h1
			c3.5,0,4.8-0.8,4.8-7.7c0-5.7-0.6-6.9-4.3-6.9h-1.4L804.1,48.6L804.1,48.6z"/>
	</g>
	<g>
		<path class="st0" d="M238.3,155.3c0.4,5.7,2,9.7,6.8,9.7c4.8,0,6.2-3.1,6.2-7.1c0-4.8-2.4-7.7-10.7-11.9
			c-12.1-6.3-16.7-11.6-16.7-21.8c0-12,7.3-19.8,21.2-19.8c16.3,0,20.9,10.2,21.1,20.9h-15.5c-0.3-4.9-1.2-9-5.7-9
			c-3.6,0-5.2,2.3-5.2,6.2s1.6,6.1,9.2,9.9c13,6.5,18.5,12,18.5,23.8c0,11.7-6.8,20.8-22.4,20.8c-17,0-22.2-9.7-22.5-21.5
			L238.3,155.3L238.3,155.3z"/>
		<path class="st0" d="M311.8,145.9h-21.2v16.7h23.9l-1.9,13H275v-69.9h37.9v13.1h-22.1v14.1h21.2V145.9L311.8,145.9z"/>
		<path class="st0" d="M337.1,146.9v28.6h-15.8v-69.9h23.6c13.5,0,20.3,6.7,20.3,19.3c0,9.7-4.8,14.2-9,15.9c5.5,2.4,8,6.9,8,17v2.4
			c0,7.8,0.3,12.2,0.8,15.2h-15.6c-0.8-2.7-1.1-8.9-1.1-15.7v-2.4c0-8.3-1.7-10.4-7.8-10.4L337.1,146.9L337.1,146.9z M337.2,134.9
			h3.7c6,0,8.3-2.2,8.3-9c0-5.8-2-8.3-7.3-8.3h-4.7L337.2,134.9L337.2,134.9z"/>
		<path class="st0" d="M383.9,175.5l-15.1-69.9h17l4.6,27.2c1.5,8.9,2.8,18.7,3.5,26.8h0.5c0.7-8.3,2.4-17.7,3.9-26.6l4.4-27.4h16.6
			l-15.3,69.9H383.9L383.9,175.5z"/>
		<path class="st0" d="M440.8,105.7v69.9h-16.1v-69.9H440.8z"/>
		<path class="st0" d="M495.3,153.6c-0.2,7.2-2.8,23.2-22.3,23.2c-19.5,0-23.3-14.1-23.3-36.4c0-25.3,8-36.1,24-36.1
			c18.7,0,21.4,14.3,21.6,22.6h-16c-0.1-3.9-0.2-9.9-5.8-9.9s-6.9,6.4-6.9,23.5c0,15,0.8,23.8,6.7,23.8c5.5,0,5.8-6.5,6-10.7
			L495.3,153.6L495.3,153.6z"/>
		<path class="st0" d="M539,145.9h-21.2v16.7h23.9l-1.9,13h-37.8v-69.9H540v13.1h-22.1v14.1H539V145.9L539,145.9z"/>
		<path class="st0" d="M562.7,155.3c0.4,5.7,2,9.7,6.8,9.7s6.2-3.1,6.2-7.1c0-4.8-2.4-7.7-10.7-11.9c-12.1-6.3-16.7-11.6-16.7-21.8
			c0-12,7.3-19.8,21.2-19.8c16.3,0,20.9,10.2,21.1,20.9H575c-0.3-4.9-1.2-9-5.7-9c-3.6,0-5.2,2.3-5.2,6.2s1.6,6.1,9.2,9.9
			c13,6.5,18.5,12,18.5,23.8c0,11.7-6.8,20.8-22.4,20.8c-17,0-22.2-9.7-22.5-21.5L562.7,155.3L562.7,155.3z"/>
		<path class="st0" d="M629.8,155.3c0.4,5.7,2,9.7,6.8,9.7c4.8,0,6.2-3.1,6.2-7.1c0-4.8-2.4-7.7-10.7-11.9
			c-12.1-6.3-16.7-11.6-16.7-21.8c0-12,7.3-19.8,21.2-19.8c16.3,0,20.9,10.2,21.1,20.9h-15.5c-0.3-4.9-1.2-9-5.7-9
			c-3.6,0-5.2,2.3-5.2,6.2s1.6,6.1,9.2,9.9c13,6.5,18.5,12,18.5,23.8c0,11.7-6.8,20.8-22.4,20.8c-17,0-22.2-9.7-22.5-21.5
			L629.8,155.3L629.8,155.3z"/>
		<path class="st0" d="M665.1,175.5v-18.2h15.7v18.2H665.1z"/>
		<path class="st0" d="M727.5,162.1c0,3.7,0.2,10.7,0.4,13.4h-14.3c-0.3-1.2-0.6-3.3-0.6-4.7c-2.7,3.6-6.4,5.7-12.1,5.7
			c-9.7,0-14.5-7.4-14.5-16.8c0-11.9,8-17.9,21.2-17.9c1.6,0,3.2,0,4.3,0.1v-5.3c0-2.9-0.4-5.4-4.3-5.4c-3.6,0-4.2,2.3-4.4,6.2
			h-14.8c0.2-9.6,4.9-17.1,19.9-17.1c12.7,0,19.2,5.1,19.2,16.3L727.5,162.1L727.5,162.1z M712.2,151.9c-1-0.1-1.9-0.1-3-0.1
			c-5.5,0-7.2,2.9-7.2,6.6c0,3.1,1.3,5.8,4.7,5.8c4.7,0,5.5-3.6,5.5-9.7V151.9z"/>
		<path class="st0" d="M735.6,175.5v-18.2h15.7v18.2H735.6z"/>
		<path class="st0" d="M759.3,139.6c0-9.2,0-14.8-0.1-18.5h15.1c0.1,1.2,0.4,4,0.4,8.8c1.9-5.9,6.6-9.8,13.8-9.7v17.1
			c-9.3-0.2-13.3,2.2-13.3,11.8v26.4h-15.8V139.6L759.3,139.6z"/>
		<path class="st0" d="M788,175.5v-18.2h15.7v18.2H788z"/>
		<path class="st0" d="M811.6,175.5v-73.2h15.8v73.2L811.6,175.5L811.6,175.5z"/>
	</g>
</g>
</svg>
